# xmcd CD database file
#
# Track frame offsets:
#	150
#	13047
#	25107
#	39600
#	53350
#	67937
#	82462
#	95107
#	106935
#	119560
#	132265
#	144757
#	156915
#	166577
#	178647
#	191850
#	205630
#	219655
#	233575
#	245910
#
# Disc length: 3438 seconds
#
# Revision: 3
# Processed by: cddbd v1.5.1PL0 Copyright (c) Steve Scherf et al.
# Submitted via: CDex 1.51
#
DISCID=150d6c14
DTITLE=Various Artist - Bad luck blues CD 2
DYEAR=1900
DGENRE=Blues
TTITLE0=Bukka White - Strange place
TTITLE1=Bukka White - District Atterney blues
TTITLE2=Hot lips page - My gal is gone
TTITLE3=Hot lips page - Blooey
TTITLE4=Hot lips page - You need coachin'
TTITLE5=Hot lips page - You'd be frantic too
TTITLE6=T-Bone Walker - Don't leave me baby
TTITLE7=T-Bone Walker - Low down dirty shame
TTITLE8=William Thomas Dupree - Warehouse man blues
TTITLE9=Sonna Terry - Screamin' and Cryn' blues
TTITLE10=Sonna Terry - Train whistle blues
TTITLE11=Joseph Vernon Big Joe Turner - Rebecca
TTITLE12=Lightnin Hopkins - Feel so bad
TTITLE13=John Lee Sonny Boy Williamson - New early in the morning
TTITLE14=John Lee Sonny Boy Williamson - You got to step back
TTITLE15=Willie James Big Dixon - If the sea was whiskey
TTITLE16=Muddy Waters - Rolling stone
TTITLE17=Muddy Waters - I be's troubled
TTITLE18=Walter Brown Brownie McGhee - Step it up and go
TTITLE19=Walter Brown Brownie McGhee - Key to the highway
EXTD=
EXTT0=
EXTT1=
EXTT2=
EXTT3=
EXTT4=
EXTT5=
EXTT6=
EXTT7=
EXTT8=
EXTT9=
EXTT10=
EXTT11=
EXTT12=
EXTT13=
EXTT14=
EXTT15=
EXTT16=
EXTT17=
EXTT18=
EXTT19=
PLAYORDER=
